<?xml version="1.0" encoding="utf-8"?>
<!DOCTYPE svg PUBLIC "-//W3C//DTD SVG 1.0//EN" "http://www.w3.org/TR/2001/REC-SVG-20010904/DTD/svg10.dtd">
<svg version="1.0" xmlns="http://www.w3.org/2000/svg" width="500px" height="500px" viewBox="0 0 500 500"
  preserveAspectRatio="xMidYMid meet">
  <g fill="none" stroke="#FFFFFF" stroke-width="2">
    <path
      d="M14 497.6 c-1.4 -0.8 -5.1 -2.2 -8.2 -3.2 -3.2 -1 -5.8 -2.2 -5.8 -2.7 0 -0.4 1 -0.5 2.3 -0.2 4.5 1.4 17.7 6.7 17.7 7.1 0 0.9 -3.6 0.3 -6 -1z" />
    <path
      d="M46.1 497.2 c-1.6 -3 -10.9 -6.8 -25.1 -10.1 -19.1 -4.6 -21.3 -5.2 -20.7 -5.7 0.7 -0.7 26.3 5.1 34.4 7.7 5.8 1.9 16.6 9.8 13.6 9.9 -0.7 0 -1.7 -0.8 -2.2 -1.8z" />
    <path
      d="M63.6 493.4 c-2.3 -7.3 -8.4 -13.6 -14.7 -15.2 -2.4 -0.6 -11.1 -1.6 -19.4 -2.2 -14.8 -1.1 -28.1 -3.2 -29.3 -4.6 -0.4 -0.4 1.1 -0.4 3.3 0 10.1 1.8 26.6 3.6 32.5 3.6 13 0 22.1 4.3 26.1 12.2 2.9 5.6 5 11.8 4 11.8 -0.4 0 -1.5 -2.5 -2.5 -5.6z" />
    <path
      d="M81 496.3 c0.1 -1.6 0.1 -6.2 0 -10.4 -0.1 -8.5 0.7 -11.5 4 -14.4 1.9 -1.7 3.6 -2 11.4 -1.9 9.9 0.1 14.6 1.6 22.2 7.2 4.1 3 12.6 14.8 14.4 20 0.8 2.3 0.8 2.4 -0.3 0.8 -0.6 -1 -3.3 -5.1 -5.8 -9 -5.5 -8.4 -7.8 -10.6 -14.4 -13.9 -9.4 -4.6 -20.8 -5.8 -26.6 -2.6 -3.2 1.7 -4.2 6.5 -3.5 17 0.4 6.5 0.3 9.9 -0.4 9.9 -0.6 0 -1 -1.2 -1 -2.7z" />
    <path
      d="M140.9 489.5 c-4.5 -13.3 -9.3 -20.6 -16 -24.4 -5.3 -3 -6.4 -3.4 -23.9 -7.6 -19.9 -4.7 -28.6 -11.5 -31.6 -24.3 -4.3 -18.1 1.4 -38.9 14 -51.6 6.9 -7 13.4 -10.7 29.1 -16.5 14 -5.3 18.1 -7.7 24.3 -14.6 10.6 -11.5 9.4 -20.9 -3.6 -30.5 -3.7 -2.7 -11 -7.2 -16.2 -9.8 -9.3 -4.8 -13.3 -5.9 -33 -9.7 -12.2 -2.3 -17.9 -5.4 -28.7 -15.7 -9.5 -9.1 -15.2 -12.6 -21.3 -12.9 -1.9 -0.1 -10.4 0.2 -18.7 0.6 -10.9 0.6 -15.3 0.5 -15.3 -0.3 0 -1 10.6 -1.5 31.5 -1.5 9.2 0 12.9 1.9 24.8 13.2 5.2 4.8 11.5 9.8 14.1 11 2.5 1.3 9.2 3.2 14.8 4.2 5.7 1.1 13.7 2.9 17.8 4 14.3 3.9 35.5 17.1 39.8 24.7 4.5 8.1 1.9 17.4 -7.2 26 -6 5.7 -12.5 9.2 -23.5 12.9 -24.4 8.1 -35.7 19.5 -41.3 41.6 -1.6 6.2 -1.9 9.9 -1.5 15.7 1.5 20.1 8.9 27 35.6 33.1 7.4 1.7 15.5 4.1 18 5.4 5 2.5 10.6 8 13.8 13.5 2.6 4.3 8.5 20.9 8 22.4 -0.2 0.5 -1.9 -3.5 -3.8 -8.9z" />
    <path
      d="M152.7 498.3 c-0.3 -0.5 -1.7 -6.1 -3.2 -12.4 -5 -21.9 -8.3 -28.7 -16 -32.3 -1.9 -0.9 -9.9 -2.5 -17.8 -3.6 -17.6 -2.3 -24 -4.6 -31.1 -11.1 -11.9 -10.9 -12.9 -28.9 -2.5 -45.1 7.1 -11 16.3 -16 35.6 -19.3 18.8 -3.3 20.1 -4.1 43.3 -27.6 24.6 -24.8 39.1 -35.1 46.2 -32.7 8.9 3.1 22.8 33.1 23 49.5 0.1 6.2 -0.4 8.2 -3.1 13.8 -4 8.1 -18.4 22.9 -32.3 33.3 -10.9 8.1 -12.5 10 -10.7 13.5 2 3.9 5.1 6.7 19.6 17.9 7.8 6 15.1 12.1 16.1 13.6 2.4 3.3 5.2 12.4 5.2 16.9 0 4.8 -4 24.6 -5.2 25.8 -0.7 0.7 -0.8 0 -0.3 -2 5 -20.8 4.6 -34.4 -1.3 -40.8 -0.9 -1 -8.3 -7 -16.4 -13.3 -16.4 -12.6 -20.8 -17.8 -19.2 -22.2 0.6 -1.6 4.7 -5.5 10.9 -10.1 5.5 -4 14.4 -11.8 19.7 -17.2 11.7 -11.9 15.9 -19.5 15.9 -28.2 0 -16.9 -16 -49.7 -24.2 -49.7 -5.2 0 -23.3 12.5 -33.4 23.1 -30.5 31.9 -34.4 34.8 -51.5 37.4 -12.8 1.9 -14.2 2.3 -20.8 5.2 -13.6 6 -22.5 20 -22.3 35.3 0.3 19.4 9.5 28.2 32.9 31.6 19.1 2.7 22.6 3.5 26.4 6 7 4.5 9.7 10.9 15.6 36.4 1.9 8 2.1 10.3 0.9 8.3z" />
    <path
      d="M160.6 498.1 c-1.6 -2.5 -3.8 -24.1 -3.3 -31.8 1 -13.7 4.9 -19.3 14.1 -20.1 14.1 -1.2 33.1 10 39.6 23.3 2.1 4.2 2.5 6.4 2.5 14.5 0 9.9 -0.9 15 -2.5 15 -0.6 0 -0.6 -1 0.1 -2.7 0.5 -1.5 1.2 -5.8 1.5 -9.7 0.8 -12.2 -3.5 -21.5 -13 -28.8 -15.1 -11.3 -30.9 -13.7 -36.9 -5.5 -1.4 1.8 -2.8 4.5 -3.1 6.2 -1.2 4.8 -0.7 23.4 0.8 32 1.4 7.8 1.4 9.6 0.2 7.6z" />
    <path
      d="M168.3 494.3 c-3.6 -21.8 5.4 -35.5 19.4 -29.3 9.7 4.3 15.4 12.9 15.5 23.4 0 3.3 -0.4 7.2 -0.9 8.5 -0.7 1.7 -0.9 -0.2 -0.9 -6.5 0.1 -7.3 -0.3 -9.6 -2.1 -12.9 -6 -11.2 -18.8 -16.1 -25.3 -9.7 -1.5 1.6 -3.3 4.6 -3.9 6.8 -1.3 4.8 -1.4 16.8 -0.2 21.2 0.5 1.7 0.6 3.2 0.1 3.2 -0.5 0 -1.2 -2.1 -1.7 -4.7z" />
    <path
      d="M226 498.5 c0 -0.4 1.3 -3.7 3.1 -8 0.5 -1.1 1.9 -5 3.3 -8.7 1.3 -3.6 6.1 -14.2 10.5 -23.5 9.2 -19.3 10.2 -24.4 6 -28.9 -2.9 -3.2 -7.8 -5.4 -11.9 -5.4 -4.5 0 -10 -2.6 -10 -4.7 0 -1 1.4 -4.7 3.1 -8.3 3.4 -7.1 8.1 -21.1 10.1 -29.9 0.7 -3.2 1.3 -12.7 1.3 -22.1 0 -18.7 0.5 -17.1 -14 -43.5 -13 -23.6 -17.6 -33.4 -20.1 -43.3 -1.4 -5.3 -2.9 -11.4 -3.4 -13.4 -0.6 -2 -2.8 -6 -5 -8.9 -2.2 -3 -4 -6.3 -4 -7.4 0 -3.3 4.8 -7.2 13.5 -10.8 4.4 -1.9 13.1 -5.6 19.4 -8.2 26.5 -11.3 36.7 -26.2 30 -44.1 -2.7 -7.2 -10.9 -15.6 -24 -24.7 -17.6 -12.2 -23.3 -18.6 -26.6 -29.9 -1.1 -3.7 -1.7 -12.3 -2.2 -28.3 -0.7 -26.3 0.1 -32.1 6.4 -48.3 2 -5.1 5.6 -17.1 8 -26.5 5.8 -22.4 5.6 -21.7 6.7 -21.7 0.6 0 0.7 0.8 0.3 1.8 -1.3 3.2 -4.5 14.7 -6.6 23.7 -2 8.4 -5.2 18.3 -9.7 30 -3.5 9 -4.5 18.8 -3.9 40.6 0.3 11.2 1.1 22.9 1.7 25.9 2.6 11.9 8 18.5 25 30.3 20.5 14.5 28.4 24.7 28.2 36.9 -0.1 7.7 -3.6 15.1 -10.1 21.6 -6.6 6.5 -13 10.1 -31.5 17.6 -15.2 6.3 -22.1 10.2 -23.3 13.3 -0.3 0.8 1.5 4.4 4 8.1 3.9 5.6 5.1 8.7 7.7 19.1 2.2 9 4.6 15.4 8.6 23.5 7.2 14.3 14.1 27.1 16.9 31.6 3.4 5.5 8.1 15.2 8.9 18.4 1.1 4.5 0.9 29.7 -0.3 36.2 -1.5 8 -7.3 25.8 -10.5 32.2 -1.4 2.8 -2.6 6.3 -2.6 7.6 0 2.1 0.6 2.6 3.8 3.1 11 1.8 13.2 2.7 17.2 7 2 2.1 2.5 3.7 2.5 7.8 0 4.5 -1.3 7.8 -9.1 24.2 -5 10.5 -10.6 23.4 -12.5 28.7 -1.9 5.4 -3.7 9.8 -4.1 9.8 -0.5 0 -0.8 -0.2 -0.8 -0.5z" />
    <path
      d="M234 498.2 c0 -3.4 26 -42.9 35.9 -54.6 5.5 -6.5 8.1 -11.2 8.1 -14.7 0 -1.5 -3.6 -5.8 -11.8 -13.8 -10.1 -9.9 -12.1 -12.4 -13.7 -17.1 -2.8 -8.1 -2.2 -22.3 1.5 -40.7 3.8 -18.7 3.3 -20.7 -7.3 -32.3 -8.2 -8.9 -12.7 -15.8 -19.7 -30.1 -7.4 -14.9 -9.6 -22.4 -10.8 -35.2 -1.6 -16.6 0.7 -20.6 16.3 -29.3 22.6 -12.7 34 -26.1 34 -40.4 0 -12.7 -7.6 -22.8 -28.6 -37.6 -14.5 -10.4 -19.4 -15.2 -22.7 -22.2 -2.6 -5.5 -2.7 -6.3 -2.6 -22.7 0 -19.7 1.5 -28.3 7.5 -44.3 4.3 -11.7 5.7 -17.9 6.5 -30.7 0.6 -10 2.9 -22.3 5 -27.4 0.8 -1.8 1.1 -3.7 0.8 -4.2 -0.3 -0.5 0 -0.9 0.7 -0.9 0.7 0 0.9 0.8 0.5 2.3 -3 10.4 -4.7 19.5 -6 32.9 -1.4 14.1 -2 16.8 -6 27.6 -5.9 15.9 -8.9 33.3 -8.4 49.2 0.3 10.6 0.6 12.1 3.6 18.2 3.6 7.3 8.3 11.8 21.7 20.9 4.4 2.9 11.9 9.2 16.6 13.9 7 6.9 9 9.6 10.8 14.5 2.9 7.6 2.6 15.9 -0.9 23 -3.2 6.8 -17.7 21 -25.9 25.5 -11.8 6.5 -18.5 11.5 -20.3 15 -2.2 4.2 -2.3 11.3 -0.4 23.5 1.8 11.1 2.9 14.1 10.6 29.7 6.4 12.8 10.9 19.4 19.6 29 9.8 10.6 10.8 15.2 7 31.1 -3.6 14.8 -4.5 32 -2.2 40.2 1.6 5.6 2.6 6.8 13.7 17.6 11.2 10.9 11.9 11.8 11.9 15.5 0 4.3 -2.3 8.2 -10 17.4 -9.6 11.3 -25.8 35.5 -30.6 45.7 -2.6 5.5 -4.4 7.8 -4.4 5.5z" />
    <path
      d="M244 498.4 c0 -0.4 2.8 -4.5 6.3 -9.3 3.5 -4.7 8.7 -12.2 11.6 -16.6 7.6 -11.4 17.8 -21.4 31.1 -30.5 18.7 -12.7 20.6 -15.2 15.3 -20.2 -2.7 -2.5 -5.6 -3.9 -19.8 -9.3 -11.2 -4.3 -18.4 -8.5 -22.6 -13.3 -9.3 -10.6 -9 -26.5 0.9 -47.2 3.6 -7.7 4.5 -10.6 4.6 -15.2 0.1 -5 -0.3 -6.1 -2.9 -8.9 -1.7 -1.7 -6.7 -5.5 -11.2 -8.5 -11 -7.3 -16.3 -13.6 -22.8 -26.9 -7.2 -14.9 -8.9 -21.1 -8.2 -30 1.2 -13.5 3.1 -16.3 23 -33.8 8.9 -7.9 20.5 -21.3 23.5 -27.4 3.5 -6.7 4.4 -12.8 3.1 -19.2 -1 -5.1 -1.8 -6.3 -8.7 -12.8 -4.1 -4 -14.5 -12.1 -22.9 -18 -22.2 -15.3 -25.6 -20.2 -25.5 -35.8 0 -14.5 4 -25.5 13.6 -37.5 2.9 -3.6 5.8 -8 6.4 -9.9 1.3 -3.7 0.9 -20.7 -0.8 -30.6 -2.1 -12.6 -0.7 -26.4 3.6 -34.6 2.6 -5 2.5 -2.7 -0.1 3.7 -3.5 8.6 -3.9 14.3 -2.1 30.1 0.9 7.8 1.7 17.7 1.7 22.1 0.1 9.2 -1.2 12.4 -8.5 21.2 -8.3 10 -12.8 23.1 -12.8 37.3 0 13 4.5 18.7 25.6 33.2 13.7 9.3 25.7 19.5 29.3 24.9 2.4 3.6 2.7 5.1 2.7 11.6 0 5.9 -0.5 8.7 -2.5 13 -3.7 8 -16 22.2 -29.2 33.9 -13.6 11.9 -15 13.7 -17.1 21.9 -2.9 11 -0.8 20.9 8.2 38.8 4.7 9.4 12 17.8 19.5 22.5 18.3 11.5 20.2 16.6 12.3 33.8 -6.1 13.4 -7.6 19 -7.6 29 0 10.3 1.8 14.9 7.8 20.3 5.1 4.6 8.9 6.6 24.9 12.8 24 9.3 24.3 13.3 2.6 28.1 -10.4 7.1 -20.5 15.7 -25.2 21.2 -2.5 2.9 -13.7 18.9 -21.8 30.9 -3.4 5.1 -5.3 7 -5.3 5.2z" />
    <path
      d="M282.9 495.2 c-2.9 -2.1 -6 -4.9 -6.7 -6.2 -3.2 -6.1 1.3 -18.4 10.2 -27.8 6.4 -6.8 10.5 -9.7 25.9 -17.8 12.7 -6.8 16.9 -10 19.4 -14.8 2.9 -5.5 -0.5 -12.4 -8.1 -16.3 -1.5 -0.8 -7.9 -2.8 -14 -4.3 -21.1 -5.4 -32.1 -10.3 -37 -16.5 -8.5 -10.6 -7.7 -16.8 4.7 -37.3 7.4 -12.4 9.2 -17.7 9.2 -28.4 0 -7.6 -0.3 -8.9 -2.3 -11.1 -2 -2.1 -3.4 -2.5 -11.1 -2.9 -7.5 -0.5 -9.7 -1 -15 -3.9 -16 -8.5 -26.6 -33.9 -20.2 -48.4 4.1 -9.3 20.2 -29.5 35 -43.9 5.8 -5.6 10 -10.9 14.5 -18.5 3.6 -5.8 7.5 -11.6 8.8 -12.7 8.8 -8.1 25.7 -15 34 -14.1 12.3 1.5 21.8 12.1 21.8 24.5 0 7.8 -3.6 14.1 -13.3 23.2 -19.2 17.9 -22.5 22.2 -25.2 32.7 -1.2 4.6 -1.3 7.1 -0.5 11.1 1.2 6.5 2.1 8.3 6 11.6 5.1 4.2 11.5 5.4 41.5 7.5 22.4 1.6 27.3 3.8 44 20.1 23.3 22.6 47.7 33.1 61.2 26.2 4.4 -2.3 9.4 -7.8 13.6 -15.2 4.7 -8.2 13.8 -15.1 19.4 -14.9 2 0 1.3 0.4 -5.4 2.9 -4.4 1.6 -8.6 6 -14 14.5 -6.1 9.5 -8 11.4 -13.8 14.1 -6.6 3.1 -12.6 3 -21.7 -0.2 -15.4 -5.5 -25.6 -12.3 -40.8 -27 -6.3 -6.1 -12.9 -11.8 -14.7 -12.7 -7.8 -4.1 -20.8 -6.7 -33 -6.7 -3.8 0 -10.7 -0.5 -15.3 -1 -17 -2.1 -23.5 -5.4 -27.1 -13.8 -5 -11.7 0.1 -26.7 13.5 -39.2 15.8 -14.8 19.8 -19.1 22.2 -24.4 5.3 -11.7 -0.3 -25.2 -12.6 -30.4 -7.7 -3.2 -21.3 0 -33 7.9 -6.9 4.6 -7.4 5.3 -14.6 16.9 -4 6.7 -9.2 13.1 -17.4 21.5 -14.5 14.9 -27.4 31.1 -31.2 39 -3.4 7.2 -3.6 12.7 -0.8 21.6 2.1 6.9 7.6 16.8 11.6 21 5.3 5.5 12.1 8.3 22.3 8.9 8.9 0.6 9.5 0.8 12.1 3.7 6.8 7.6 4.1 23.2 -7.3 42.2 -7.8 12.9 -9.1 16.6 -8.5 24.2 0.3 4.6 1.1 6.7 3.4 9.6 5.3 6.6 17.6 12.1 38.9 17.4 14.3 3.5 20.8 7.8 22.1 14.5 1.5 8.3 -3.2 13.8 -18.8 21.9 -20.9 10.8 -29.4 17.8 -34.8 28.9 -2.5 5.1 -3.1 7.3 -2.8 11.6 0.3 5.7 0.9 6.4 10.8 13.2 1.4 0.9 2 1.7 1.4 1.7 -0.6 0.1 -3.5 -1.6 -6.5 -3.7z" />
    <path
      d="M356.5 498.1 c1 -1.7 13.9 -9.7 18.2 -11.4 8.2 -3.2 13.6 -3.2 22.9 -0.1 6.6 2.2 9 2.6 11.2 1.8 2.5 -0.9 2.7 -1.4 2.6 -5.9 0 -3.3 -1.1 -7.4 -3.2 -12.2 -5.8 -13 -6 -20 -1 -31.8 2.3 -5.6 10.1 -17.6 16.1 -24.8 9.6 -11.6 17.3 -10.4 40.7 6.3 14.9 10.6 21 14.2 29.4 17.6 3.9 1.5 6.5 2.9 5.9 3.1 -1.6 0.6 -12.4 -4 -19.1 -8.1 -3.1 -1.9 -10.9 -7.1 -17.2 -11.6 -12.9 -9.2 -22 -14 -26.6 -14 -4.7 0 -9.2 3.6 -16.7 13.5 -16.2 21.4 -18.3 34.2 -8.7 53.5 2.8 5.6 3.1 11.5 0.9 13.9 -2.2 2.4 -7.1 2.8 -11.6 1 -7.9 -3.1 -12.1 -3.7 -18.6 -2.5 -6.9 1.3 -12.6 3.9 -20 9.2 -4.8 3.5 -6.3 4.2 -5.2 2.5z" />
    <path
      d="M373.5 497.8 c2.6 -1.6 14.4 -1.6 17 0.1 1.7 1 1.3 1.1 -2.5 0.5 -5.8 -0.9 -6.6 -0.9 -12 0 -3.9 0.6 -4.2 0.5 -2.5 -0.6z" />
    <path
      d="M423 498.7 c0 -0.3 0.7 -2.2 1.6 -4.2 2.5 -6 2.2 -13.8 -1 -27.3 -2.7 -11.1 -2.9 -12.8 -1.7 -17 1.9 -7.6 6.1 -13.3 12.1 -16.9 8.2 -5 13.9 -4.4 28.5 2.9 11.8 5.9 18.9 8.8 29 11.9 5.3 1.6 7.9 2.8 6.2 2.8 -4 0.1 -18 -5 -32.5 -11.8 -7 -3.3 -15 -6.5 -17.9 -7.1 -4.6 -1 -5.7 -0.9 -10 1 -6.3 2.8 -9.1 5.4 -11.9 11.5 -3 6.2 -3.1 13.3 -0.4 23.2 3 11.5 3.5 18.2 1.6 24.6 -0.9 3.1 -2.1 5.9 -2.6 6.2 -0.6 0.3 -1 0.4 -1 0.2z" />
    <path
      d="M432.3 497.7 c1.9 -5.2 3.6 -15.4 4.2 -25 0.9 -13.5 3 -18.2 9.5 -21.5 5.8 -3 9.5 -2.6 33.3 3.9 10 2.7 18.7 4.9 19.4 4.9 0.7 0 1.3 0.5 1.3 1 0 1.4 0.2 1.5 -19.5 -4.1 -20.8 -5.9 -29.3 -6.9 -34.5 -4.2 -5.6 2.9 -6.9 6.3 -8.5 22.9 -1.4 14.5 -2.7 20.8 -4.8 22.9 -0.7 0.7 -0.8 0.4 -0.4 -0.8z" />
    <path
      d="M438.8 497.7 c0.6 -0.7 2.9 -6.4 5.1 -12.6 2.2 -6.3 5.3 -13 6.9 -15 3.8 -4.7 10.2 -7.2 16.7 -6.6 6.8 0.7 32.5 6.7 32.5 7.6 0 0.4 -1.7 0.3 -3.7 -0.2 -39.4 -9.7 -43.5 -8.4 -51.9 16.5 -2.4 7.3 -4.4 11.6 -5.3 11.6 -1 0 -1.1 -0.3 -0.3 -1.3z" />
    <path
      d="M447 498.2 c0 -2 5.6 -12.6 8.6 -16.1 1.4 -1.8 4.5 -4.1 6.7 -5.3 3.6 -1.8 5.3 -2 13.2 -1.5 5.3 0.4 12.3 1.7 17 3.2 9.1 2.9 6.3 2.7 -7 -0.4 -11.1 -2.5 -16.8 -2.6 -22 -0.2 -5.2 2.4 -7.8 5.3 -12.5 14.2 -2.2 4.1 -4 6.8 -4 6.1z" />
    <path
      d="M456.5 496 c2 -3.9 9.9 -9.8 14.2 -10.6 1.9 -0.4 5.7 -0.3 8.6 0 6.6 0.9 20.7 4.8 20.7 5.8 0 1.2 -1.7 1 -5.7 -0.7 -6.3 -2.6 -18.7 -4.4 -23.7 -3.3 -4.7 1 -12.1 6.5 -13.1 9.8 -0.4 1.1 -1.1 2 -1.6 2 -0.5 0 -0.3 -1.3 0.6 -3z" />
    <path
      d="M469 498.3 c0 -0.1 2 -0.6 4.5 -1.1 3.2 -0.7 6.2 -0.6 9.8 0.2 5.2 1.2 5.2 1.2 -4.5 1.1 -5.4 0 -9.8 -0.1 -9.8 -0.2z" />
    <path
      d="M321 495.6 c-24.2 -10.1 -30.2 -17.5 -23.2 -28.7 3.8 -6 7.8 -8.8 22.3 -15.8 17.7 -8.4 24 -14 25.4 -22.3 1.5 -8.6 -4.2 -18.5 -12.8 -22.6 -2.3 -1.1 -10.6 -3.6 -18.2 -5.6 -21.2 -5.5 -31.6 -11.3 -34.9 -19.6 -2.1 -5.2 -0.7 -9.5 7.2 -23.7 3.4 -6 8.4 -16.8 11.1 -24.2 13.3 -35.1 26.7 -44.8 60.9 -43.9 19 0.5 21.6 1.7 38.2 18.6 11.5 11.6 14 13.6 29.2 23 19.5 12 23.5 13.7 32.3 13 12.7 -1.1 24 -9 31 -21.9 3.7 -6.6 9.1 -12.7 10.3 -11.5 0.3 0.3 -0.7 1.5 -2.1 2.7 -1.5 1.1 -4.5 5 -6.6 8.7 -8.2 14 -17.2 20.8 -30.6 23.3 -9 1.7 -14 -0.2 -34.4 -12.9 -15.8 -9.8 -18.6 -12.1 -31 -24.3 -11.9 -11.8 -14.3 -13.8 -19.1 -15.3 -12.5 -4.1 -37.7 -2.6 -49.2 2.8 -6.9 3.3 -15.1 11.8 -20 20.8 -2 3.6 -5.7 12.1 -8.2 18.9 -2.6 6.8 -6.9 16.3 -9.6 21 -9.2 16 -10.4 20.2 -7.5 25.8 3.7 7.2 12.6 11.9 32.8 17.2 17.3 4.5 22.6 6.8 26.2 11.1 6.8 8.1 8.4 16.2 4.7 23.4 -3.9 7.5 -9.6 11.8 -25.6 19.3 -16.6 7.8 -22.6 13.6 -22.6 21.9 0 6.1 3.4 9.4 16.4 15.8 14.9 7.3 18.9 7.7 27.6 3.2 11.2 -5.9 32 -19.1 37 -23.6 5 -4.4 7.1 -8.9 8.5 -17.7 1.2 -7.2 5.3 -16.2 12.3 -26.7 3.8 -5.7 9.2 -14.4 12 -19.4 8.2 -14.5 17.3 -21.5 26 -19.9 5.4 1 8.3 2.8 20 12.3 13.4 10.8 33.9 25.4 39.2 27.9 2.2 1 4 2.1 4 2.5 0.1 3.2 -24.3 -13.2 -46 -31.1 -4.1 -3.4 -9.4 -7.1 -11.8 -8.2 -11.1 -5.5 -21.6 0.3 -29.8 16.4 -1.3 2.6 -6.6 11.2 -11.7 19 -9.2 14.3 -10.5 17.2 -14.2 32.6 -2.5 10.4 -5.1 13 -25.6 25.7 -20.5 12.8 -23.8 14.4 -29.4 14.3 -2.9 0 -7.3 -0.9 -10.5 -2.3z" />
    <path
      d="M339.8 470.4 c-2.1 -0.9 -3.8 -2.3 -3.8 -3.1 0 -2.9 3.9 -7.8 12.6 -15.7 5.5 -5.1 9.4 -9.5 10.5 -12.2 1.7 -3.8 1.8 -4.5 0.4 -10 -3.5 -13.5 -12 -24.7 -22.5 -29.6 -3 -1.4 -9.8 -3.6 -15 -4.8 -9.9 -2.4 -19.8 -6.7 -23.8 -10.4 -1.3 -1.1 -3.3 -3.8 -4.3 -5.9 -2.3 -4.5 -1.8 -7.5 3.6 -20.2 11.8 -28 21.4 -41.8 34.8 -50.6 11.1 -7.2 26.2 -10.4 36.1 -7.5 6.1 1.8 8.8 4.1 20.5 17.5 4.1 4.7 9.8 9.6 16.5 14.1 15.9 10.7 21.7 17.9 21.8 27.1 0 3.9 -0.1 4.1 -10.9 18.2 -2.3 3.1 -7.9 12.8 -12.3 21.7 -7.8 15.5 -8.6 16.5 -19 27.4 -12 12.5 -13.1 14.3 -15 23.5 -1.9 8.9 -6.1 14.9 -13 18.3 -7.2 3.5 -12.5 4.2 -17.2 2.2z m16.9 -3.3 c6 -3 10 -8.4 11.3 -15 2.1 -10.9 3.8 -13.8 14.4 -24.9 12.6 -13.3 12.8 -13.5 22 -31.7 5.1 -10.2 9.6 -17.6 14.1 -23 7.1 -8.6 8.4 -12.4 6.7 -18.4 -2 -6.4 -7.2 -11.9 -19.2 -20 -11.1 -7.6 -15 -11.2 -25.2 -23.3 -6.3 -7.5 -11.3 -9.8 -20.9 -9.8 -13.3 0 -24 4.4 -34.5 14.2 -7.9 7.4 -12.4 13.9 -19.1 27.3 -8.5 16.8 -12.6 28.2 -12 32.8 1.1 7.8 10.1 13.8 27.8 18.2 12 3 16.7 5 22.6 9.4 5.8 4.2 12.7 15 15.4 24 3.2 10.7 2.2 13.1 -10.1 25.1 -8.9 8.7 -13.8 14.6 -12.9 15.4 3.9 3.2 13.1 3.1 19.6 -0.3z" />
    <path
      d="M370.3 415.8 c-2 -0.5 -6.9 -4.2 -12.4 -9.3 -10.2 -9.6 -15.9 -12.8 -30.6 -17.4 -11.3 -3.5 -17.6 -7.5 -20.8 -13.3 -1.7 -3.3 -1.8 -4.2 -0.8 -9.5 0.7 -3.2 3.4 -10.1 6 -15.3 8.7 -17.2 20.2 -26 34.8 -26.8 7 -0.4 7 -0.4 28.2 10.3 22.7 11.3 27.2 14.8 29.2 22.1 0.8 2.9 0.7 5.4 -0.5 10.3 -2.6 11.5 -8.6 29.5 -11.7 35.4 -5.3 10 -13.9 15.5 -21.4 13.5z m11.4 -3.7 c7.6 -5.5 10.7 -11.6 16.8 -32.7 7.9 -26.9 7.3 -28 -24.2 -43.6 -20.2 -10 -20.2 -10 -28.5 -9.6 -10.4 0.5 -14.3 2.3 -22.4 10.4 -11.4 11.3 -19 30.8 -15.4 39.4 1.8 4.2 8.7 8.2 22.7 12.9 14.3 4.7 17.8 6.8 27.6 16 4 3.7 8.3 7.5 9.7 8.4 3.8 2.6 9.1 2.2 13.7 -1.2z" />
    <path
      d="M362.9 398.7 c-3 -1.8 -7.3 -4.5 -9.5 -6.1 -2.3 -1.5 -9.2 -4.7 -15.4 -7.1 -14.2 -5.6 -17.6 -7.8 -20 -12.6 -1.7 -3.3 -1.9 -4.5 -0.9 -8.8 3 -13.9 17.2 -24.8 29 -22.2 11.4 2.6 29.1 10.7 35.3 16.1 7.2 6.3 8.7 22 3.3 34.2 -4.7 10.5 -11.7 12.6 -21.8 6.5z m16 -0.2 c1.6 -1.4 3.9 -4.9 4.9 -7.8 4.4 -11.8 3.5 -24 -2.1 -30.4 -5.2 -5.9 -30.7 -17.3 -38.9 -17.3 -11.6 0 -23.1 10.6 -24.4 22.6 -0.9 8.8 3.1 12.5 20.9 18.9 4.3 1.6 10.3 4.3 13.3 6.2 3 1.8 8 4.9 11.1 6.8 6.9 4.2 11 4.5 15.2 1z" />
    <path
      d="M357.5 384.2 c-2.2 -1 -8.2 -3.3 -13.3 -5.1 -13.7 -5 -17.8 -10.4 -13.2 -17.8 3.9 -6.5 9.8 -8.2 18.7 -5.5 16.5 5.2 27.8 19.4 21.5 27.2 -2.4 3 -8.6 3.6 -13.7 1.2z m12.2 -1 c1.2 -0.8 1.7 -3.7 1.5 -8.5 -0.4 -6.6 -16.4 -17.5 -27.2 -18.4 -5.2 -0.5 -5.9 -0.3 -9.2 2.6 -4.4 3.8 -5.3 8.2 -2.6 11.7 2.5 3.1 3.9 3.8 17.3 9 10.4 4 17.5 5.3 20.2 3.6z" />
    <path
      d="M10 463.3 c-6.1 -0.6 -10.2 -1.4 -9.7 -1.9 0.3 -0.3 5.1 0 10.8 0.6 8.6 1 11.9 0.9 18.9 -0.3 16.6 -2.9 26 -8.2 28 -15.7 0.6 -2.2 1.7 -10.6 2.5 -18.7 1.7 -17.8 2 -19.5 5.6 -29 6.7 -18 15.6 -27.3 35.9 -37.8 19 -9.8 25 -15.7 25 -24.6 0 -7.8 -6 -14.8 -17.7 -20.7 -5.1 -2.6 -10.6 -3.9 -25.1 -5.8 -17.3 -2.3 -20.5 -3.7 -35.9 -16.3 -11.4 -9.3 -13.9 -10.2 -32.3 -11.4 -8.5 -0.5 -15.7 -1.1 -15.9 -1.3 -1.4 -1.3 2.4 -1.4 15.9 -0.6 13.9 0.9 15.7 1.3 21.4 4.1 3.3 1.7 9.9 6.3 14.6 10.3 10.2 8.6 16 11.4 26.6 12.9 20.9 2.9 25 3.9 31.9 7.3 8.3 4.2 14.1 9.5 16.6 15.4 2.3 5.4 2.3 7.6 0 12.7 -2.6 5.9 -9.4 11.3 -22.3 18 -19.6 10.1 -25.8 15.3 -32.7 27.6 -6.2 11 -9.6 24.7 -10.6 42.9 -0.7 12 -2.6 18.8 -6.2 22.2 -8 7.7 -27.1 11.9 -45.3 10.1z" />
    <path
      d="M6.6 452.9 c-9.3 -1.4 -8 -2.2 2.4 -1.4 16.4 1.2 28.3 -2.6 36.3 -11.4 4.5 -5 6.3 -9.2 8.7 -20.1 8 -36 16.2 -49.3 38.5 -62.8 21.7 -13.1 26.1 -20.8 17.4 -30.6 -5 -5.8 -13.3 -8.2 -31.4 -9.1 -16.3 -0.8 -21.8 -3.2 -34.6 -15 -10 -9.3 -17.6 -12.3 -33.1 -13.2 -6.1 -0.3 -10.8 -1 -10.8 -1.6 0 -1.4 17.5 0 24.1 1.9 8.4 2.5 13.7 5.7 22.4 13.3 10.4 9.1 14.7 11.2 25.4 12.3 23.8 2.3 26.3 2.8 31.5 5.1 5.2 2.4 9.6 6.9 11.3 11.5 2.9 7.9 -3.1 15.5 -20.2 25.7 -23.2 13.8 -29.7 24 -38.4 59.8 -3.9 16 -6.1 20.6 -12.3 26.2 -5.4 4.9 -12.5 7.9 -22 9.5 -7 1.1 -6.9 1.1 -15.2 -0.1z" />
    <path
      d="M5.3 442.9 c-2.9 -0.6 -5.3 -1.5 -5.3 -2 0 -0.4 1.5 -0.5 3.3 -0.1 1.7 0.4 7.2 0.7 12.2 0.7 10.5 -0.1 16.6 -2.3 22.8 -8.3 5.4 -5.2 8 -10.7 13.2 -28.6 11.3 -38.6 13.2 -41.6 35.8 -54.7 7.1 -4.1 11.7 -9 11.7 -12.5 0 -8.8 -9.5 -11.7 -29 -8.9 -16.1 2.4 -16.8 2.1 -27.6 -11 -11.5 -14 -21 -19.7 -32.5 -19.6 -2.6 0 -6 -0.4 -7.5 -0.9 -2.3 -0.7 -1.6 -0.8 3.7 -0.9 8.3 -0.1 17.9 2.7 24.1 7.2 2.6 1.8 8.4 7.7 13 13.2 10.2 12.3 11.5 12.8 24.3 10.9 19.7 -3 29.5 -0.9 32.4 6.8 1.3 3.6 1.2 4 -1.2 7.7 -2.4 3.6 -4.6 5.2 -21.9 16.2 -5.6 3.6 -8 5.9 -10.6 10.2 -3.7 6.1 -8.9 20.5 -13.9 38.2 -4.1 15 -8.1 23.1 -13.6 28.2 -7.7 7.1 -21.6 10.5 -33.4 8.2z" />
    <path
      d="M105.1 438.5 c-6.7 -1.5 -9.8 -3.1 -14.4 -7.4 -12.2 -11.2 -8.6 -31.6 7.2 -40.9 4.1 -2.4 5.6 -2.7 13.6 -2.7 11.8 0.1 25.3 4.1 30.2 9 2.9 2.9 3.3 3.9 3.3 8.7 0 7.7 -2.6 18.6 -5.3 22.7 -3.1 4.6 -10.7 8.8 -19.4 10.6 -8 1.7 -7.1 1.7 -15.2 0z m23.7 -4 c3.5 -1.5 7.4 -4.1 8.7 -5.7 3.5 -4.2 5.6 -12.1 5.6 -21.3 -0.1 -10 -1.1 -11.2 -14.1 -15.6 -13 -4.4 -23.4 -4.7 -30.1 -0.7 -9.8 5.8 -14.4 14.3 -13.7 25.1 0.5 7.9 3.2 12.4 10 16.8 8.7 5.6 22.9 6.2 33.6 1.4z" />
    <path
      d="M102.5 423.2 c-4.4 -2.7 -5.4 -4.3 -5.6 -8.9 -0.6 -9.3 8.6 -14.4 16.9 -9.3 7.1 4.3 7.7 13.4 1.3 17.7 -4.1 2.8 -8.6 2.9 -12.6 0.5z m12.9 -2.3 c3.1 -2.4 3.6 -8.1 1 -11.7 -5.8 -8.4 -18.4 -5.4 -18.4 4.4 0 3.5 0.5 4.7 3.1 6.8 3.9 3.3 10.4 3.6 14.3 0.5z" />
    <path
      d="M10.5 433.4 c-7.1 -1.6 -10.5 -2.8 -10.5 -3.5 0 -1.1 -0.3 -1.1 4.5 0.6 5.3 1.9 15.1 1.9 20.7 -0.1 9.5 -3.2 15.5 -12.3 20.3 -30.9 1.4 -5.5 2.9 -13.4 3.2 -17.6 0.7 -9.2 -0.9 -13.5 -8.6 -22.4 -5.9 -6.8 -8.4 -12.8 -10.5 -25 -0.9 -4.8 -2.5 -10.7 -3.7 -13.1 -4 -8.3 -12.8 -13.1 -22.1 -11.9 -3.2 0.4 -3.8 0.3 -2.3 -0.4 6.8 -3.2 17.7 0.4 23 7.7 3.8 5.3 4.9 8.5 7 20.6 1.8 10.3 3.6 14.2 10.5 22.4 6.3 7.5 8 11.6 8 19 0 10.5 -4.6 29.6 -9.5 39.2 -2.8 5.5 -8.8 11.4 -13.5 13.4 -3.8 1.5 -13.3 2.7 -16.5 2z" />
    <path
      d="M10 421.4 c-2.9 -0.9 -10 -4.9 -10 -5.6 0 -0.4 2.8 0.6 6.3 2.2 3.4 1.7 7.3 3 8.7 3 11.5 0 19 -9 19.8 -23.6 0.6 -10.4 -0.6 -13.9 -7.2 -21.5 -2.9 -3.3 -8.1 -10.7 -11.5 -16.5 -6.2 -10.4 -9.4 -13.4 -14.1 -13.4 -1.1 0 -2 -0.4 -2 -1 0 -1.5 2.5 -1.2 6.5 0.7 3.4 1.6 5.6 4.5 11.9 15.6 1.5 2.6 5.4 8 8.8 12 7.6 9.1 8.9 11.7 9.5 18.8 1.2 12.3 -5.3 25.5 -14 28.8 -2.8 1.1 -9.9 1.3 -12.7 0.5z" />
    <path
      d="M488.4 409.1 c-15.1 -9.5 -20.9 -14.1 -26.5 -20.8 -11.8 -13.9 -10.1 -22.7 6 -30.8 14.5 -7.2 32.1 -14.2 32.1 -12.6 0 0.4 -1.9 1.3 -4.2 2 -6.6 2 -31.5 13.6 -35.3 16.6 -2.1 1.5 -3.9 4.1 -4.6 6.4 -1 3.5 -0.9 4.5 1.5 9.6 3.6 8 11.7 15.4 28.1 25.9 16.4 10.5 15 9.5 14.3 10.1 -0.2 0.3 -5.4 -2.6 -11.4 -6.4z" />
    <path
      d="M158.8 389.8 c-5.4 -1.9 -2.9 -8.9 7.2 -20.4 16.6 -18.8 18 -20.3 22.5 -22 3.8 -1.4 4.9 -1.5 7.5 -0.4 8 3.3 11.3 14.6 7 23.5 -3.2 6.5 -12.2 15.9 -17.3 18.1 -4.8 2 -22.4 2.8 -26.9 1.2z m26.8 -2.8 c5.3 -2.3 12.8 -10.1 16.1 -16.8 4.3 -8.8 2 -17.5 -5.6 -21.3 -2.9 -1.6 -3.5 -1.6 -7.2 -0.1 -4 1.5 -6 3.5 -21.9 21.6 -6.1 6.9 -10 13.2 -10 16 0 1.9 2.5 2.5 11.5 2.9 8.9 0.3 12 -0.1 17.1 -2.3z" />
    <path
      d="M446 317 c-10.8 -1.9 -20.9 -8.1 -35 -21.5 -5.2 -5 -11.1 -10.1 -13.1 -11.3 -7.1 -4.3 -18.1 -7.3 -32.3 -8.7 -11.2 -1.1 -22.8 -3.5 -26.9 -5.6 -10.2 -5.1 -13.7 -9.7 -13.7 -17.6 0.1 -7.8 3 -12.5 16.7 -26.7 14.9 -15.3 18.5 -21 18.6 -29.5 0 -6.2 -3.1 -14.6 -7.9 -20.8 -4.1 -5.4 -12.5 -11.1 -18.6 -12.7 -5.2 -1.3 -6.4 -1.3 -18.9 1.1 -24.7 4.6 -28.1 2.8 -36.3 -18.7 -5.2 -13.7 -11.8 -27.1 -18.3 -37.1 -9.6 -15 -12.5 -25.8 -8.2 -31.3 2.8 -3.5 5.7 -4.9 16.2 -7.6 10 -2.6 13.2 -2.3 34.5 3.1 14 3.6 25 3.9 29.9 0.9 5.4 -3.3 8.2 -9.1 12.4 -25.9 4.8 -19.1 6.4 -24 10.1 -31.5 2.9 -5.7 11.8 -15.6 14 -15.6 0.7 0 -1.3 2.4 -4.4 5.3 -8.5 7.9 -12.5 17.2 -18.3 42.2 -5 21.6 -11.4 29.5 -23.7 29.5 -3.3 0 -10.5 -1.2 -16.1 -2.6 -14.7 -3.7 -23.6 -5.4 -28.8 -5.4 -6.9 0 -20.6 4.3 -24.1 7.7 -2.8 2.6 -2.9 3.2 -2.3 7.8 0.8 6.1 4.1 13.6 10.4 23.5 6.4 10 14.2 25.6 17.6 35.5 3.8 10.9 5.9 14.8 9.4 17.8 4.5 3.7 9.1 4.1 21.6 1.6 21.1 -4.2 28.1 -2.8 38.9 7.6 7.6 7.2 12 16.5 12 25.1 0 9.7 -3.5 15.5 -18.1 30.4 -13.1 13.3 -17.3 19.6 -17.3 26.2 0 7.2 3.9 12.1 13 16.2 4 1.8 10.5 3.2 23.5 5.1 29.5 4.1 33.5 5.9 50.9 22.2 11.2 10.6 18 15.2 26.9 18.3 11.1 3.9 20.6 1.8 26.8 -6 7.7 -9.8 14.3 -16 18.3 -17.5 4.9 -1.9 14.6 -3.5 14.6 -2.5 0 0.4 -2.1 1.1 -4.7 1.5 -10.3 1.5 -15.9 5.3 -25.5 17.3 -7.2 9 -14 11.9 -23.8 10.2z" />
    <path
      d="M136.5 309.3 c-2.2 -0.8 -9.4 -4 -16 -6.9 -6.7 -2.9 -16.3 -6.5 -21.5 -7.9 -25.4 -7 -28.5 -8.7 -40.2 -22.3 -11.4 -13.3 -18.1 -16.1 -30.6 -12.8 -10.1 2.7 -22.5 4 -25.7 2.8 -3 -1.2 -3 -1.2 1 -0.8 4.5 0.4 14.4 -0.9 22.5 -3 14.7 -3.8 21.6 -1.1 34.4 13.6 9.3 10.6 16.8 15.6 27.6 18 12.2 2.8 22.1 6.1 31.6 10.6 13.6 6.4 19.8 8.4 26.1 8.4 6.7 0 10.1 -1.7 13.6 -6.8 6.5 -9.3 8.9 -23.9 5.2 -31.3 -2 -3.8 -7 -11 -13 -18.4 -2.3 -2.8 -6 -8.6 -8.4 -13 -5.9 -10.8 -12.2 -17.1 -22.1 -22.4 -7.3 -3.9 -9 -4.4 -17.3 -5 -13.1 -0.9 -38.4 2.5 -61.4 8.3 -5.4 1.4 -15.4 3.2 -22.3 4.1 -6.9 0.9 -14.2 2 -16.3 2.5 -2 0.4 -3.7 0.4 -3.7 0 0 -0.9 8.7 -2.5 21.2 -4 4.6 -0.6 14.9 -2.6 23 -4.5 27.4 -6.5 54.8 -9.7 64.7 -7.6 14.6 3.1 26.6 12.6 35.1 27.6 3 5.4 7.1 11.6 9.1 13.9 6.5 7.5 12.7 17.5 13.9 22.5 2.7 11.5 -3.9 28.9 -13.1 34 -4.4 2.5 -11.7 2.7 -17.4 0.4z" />
    <path
      d="M436.3 300.5 c-2.8 -1.4 -8.5 -5.6 -12.8 -9.3 -12.8 -11.2 -16.7 -14 -22.4 -16.2 -4.7 -1.8 -10.2 -2.9 -36.1 -7.1 -9.6 -1.5 -17.5 -4.7 -22.3 -8.9 -3.9 -3.5 -4.2 -4.2 -4.2 -8.6 0.1 -6.8 2.3 -10.7 12.6 -22 11 -12.2 16.7 -20.5 17.5 -25.5 0.4 -2.2 1.1 -3.9 1.6 -3.9 1.5 0 -0.1 6 -2.9 10.9 -2.6 4.5 -12.2 16.4 -15.4 19.1 -4.1 3.4 -10.8 13.4 -11.8 17.6 -2.9 11.5 6.4 17.3 34 21.3 26.2 3.8 32.3 6.3 46.1 18.8 12.8 11.6 17.8 14.3 25.9 14.3 7.6 0 9.4 -1 17.8 -9.8 3.4 -3.6 7.9 -7.1 10.6 -8.3 5.7 -2.5 23.2 -4.6 24.8 -3 0.8 0.8 -0.4 1.1 -4.4 1.1 -7.4 0 -17.5 1.8 -21.3 3.7 -1.7 0.9 -6.5 4.9 -10.6 8.9 -4.1 4 -8.8 7.7 -10.3 8.3 -4.8 1.8 -10.9 1.3 -16.4 -1.4z" />
    <path
      d="M259.8 296 c-7.2 -3.8 -12.8 -13.6 -12.8 -22.1 0 -4.9 2.6 -11.4 8.4 -21.2 2.5 -4.3 4.6 -8 4.6 -8.3 0 -0.3 1.8 -3.1 3.9 -6.3 2.6 -3.8 7.1 -8.2 13.7 -13.2 16.6 -12.7 23.7 -18.8 29.9 -25.9 12.9 -14.7 21.3 -18.4 27.5 -12.2 6.7 6.7 4.4 15.4 -6.5 24.6 -17 14.4 -21.9 21.6 -29.9 43.7 -7.1 19.9 -15.6 33 -25.9 40.2 -4.7 3.2 -7.8 3.3 -12.9 0.7z m12.8 -2.2 c9.1 -6.1 18.1 -20.3 24.9 -39.3 7.4 -20.9 13.2 -29.9 26 -40.5 4.3 -3.5 9 -8.1 10.6 -10.3 6.1 -8.4 2.4 -18.5 -6.4 -17.9 -5 0.4 -8.5 3 -21.5 16.1 -7 7 -15.4 14.7 -18.7 17.1 -11.5 8.3 -19.8 15.5 -22.3 19.5 -3.1 4.7 -10.7 18.3 -13.6 24 -6.1 12.2 -2 26.5 9.3 32.5 4.9 2.6 6.1 2.5 11.7 -1.2z" />
    <path
      d="M130 295 c-1.4 -0.4 -6.5 -2.5 -11.5 -4.7 -9.7 -4.4 -13.5 -5.8 -26.3 -9.8 -9.9 -3.1 -14.5 -5.8 -20.3 -12 -8.6 -9.1 -14.1 -18.3 -15.3 -25.2 -2.2 -12.3 15.4 -22.3 39.4 -22.4 12.4 -0.1 19 2.3 26.6 9.4 4.5 4.4 7 8.4 15.8 25.2 12.3 23.8 13.1 25.9 11.6 31.4 -1.6 6 -5.9 9.1 -12.3 9 -2.9 0 -6.3 -0.4 -7.7 -0.9z m15.7 -3.5 c3.3 -3.3 3.5 -3.9 3.1 -8.8 -0.3 -3.2 -1.6 -7.5 -3.6 -11.2 -1.7 -3.3 -6.6 -12.6 -10.7 -20.7 -4.2 -8.1 -9 -16.2 -10.7 -17.9 -10.2 -10.1 -23.3 -13.1 -41.6 -9.3 -10.5 2.2 -16.5 4.9 -20.7 9.5 -2.8 3.2 -3.5 4.7 -3.5 8.2 0 5.4 3.4 12.6 9.4 20.2 9.2 11.5 13.3 14.1 32.1 20 6.6 2 14.7 5.1 18 6.7 8.7 4.4 15.4 6.6 20.4 6.7 3.6 0.1 4.8 -0.4 7.8 -3.4z" />
    <path
      d="M96 265.4 c-7 -1.9 -12.2 -5.3 -16.1 -10.7 -2.6 -3.6 -3 -4.8 -2.6 -8.7 0.9 -8.5 9.9 -13.6 22.3 -12.8 10.6 0.7 18.2 7.9 20.3 19.4 0.8 4 0.6 5.5 -0.9 8.4 -1 2 -3 4.1 -4.5 4.8 -3.5 1.6 -11.7 1.4 -18.5 -0.4z m20.1 -2.3 c2.1 -1.7 2.4 -2.8 2.3 -7.8 -0.3 -15.7 -14.2 -25 -29.6 -19.8 -4.6 1.6 -9.5 5.8 -9.8 8.5 -0.8 5.9 0.1 8.5 4.8 12.9 5.8 5.7 12 7.9 22.3 8 6.2 0.1 8.1 -0.3 10 -1.8z" />
    <path
      d="M429.4 272.2 c-5.4 -2.7 -12.1 -5.4 -14.9 -6 -6.9 -1.6 -20.8 -3.2 -27.7 -3.2 -12.7 0 -28.8 -5.3 -32.4 -10.8 -4.1 -6.2 -1.5 -12.2 12 -28.2 5.3 -6.3 10.6 -13.3 11.7 -15.8 4 -8.2 1.2 -19 -9.1 -34.2 -2 -3 -5.4 -8.2 -7.4 -11.4 -4.7 -7.3 -13.5 -16 -19 -18.8 -6.6 -3.4 -10.3 -3.8 -21.8 -2.6 -9.4 1 -11.2 0.9 -15.2 -0.6 -5.7 -2.2 -11.5 -8.5 -16 -17.5 -4.9 -9.6 -5.9 -14.4 -4 -19.1 3.7 -9.1 13.1 -7.9 33.1 4.2 15.3 9.3 20.5 8.9 31.8 -2.5 13 -13.2 17.7 -26.2 15.6 -42.9 -0.7 -5.1 -1.3 -11.3 -1.5 -13.8 -0.7 -15 6 -28.1 16 -30.9 2.7 -0.8 5.5 -0.4 13.2 1.5 14.6 3.6 18.1 3.9 24.8 1.9 7.1 -2 13.5 -8.1 17.4 -16.2 1.4 -2.9 2.8 -5.3 3.2 -5.3 2.5 0 -7.5 15.7 -12.1 18.9 -7.9 5.7 -15.7 6.3 -30.9 2.6 -12.4 -3 -14.7 -3.1 -18.8 -0.6 -4.8 2.9 -8.2 8 -10 15.2 -1.5 5.7 -1.5 8.2 -0.4 22.9 0.9 12.5 0.9 17.7 0 21.4 -2.7 12 -15 28.7 -24.5 33.5 -6.9 3.5 -12.3 2.7 -22.7 -3.5 -17.5 -10.3 -23.6 -12.3 -29.4 -9.9 -3.7 1.5 -4.9 5.1 -3.9 11.2 1.1 5.9 7 17.4 11.2 21.7 6.1 6.3 8.7 6.9 24.3 6.2 13.5 -0.7 13.5 -0.7 19.5 2.2 6 2.9 17 13.2 21 19.7 1 1.7 4.3 6.8 7.3 11.3 8.4 13.1 11.5 20.3 11.3 27 -0.1 7.6 -2.4 11.8 -13.1 24.2 -16.8 19.6 -18.1 27 -5.4 32.6 6.2 2.7 13.1 3.9 30.9 5.4 18.5 1.6 22.7 2.5 34.8 8.2 6.1 2.9 12.1 5 14 5 1.9 0 7.7 -1.4 13 -3.1 7.4 -2.4 11.6 -3.1 17.5 -3.1 9.4 0 27.2 2.1 27.2 3.2 0 0.5 -1 0.6 -2.2 0.4 -7.8 -1.6 -22.9 -2.8 -28.6 -2.3 -3.7 0.4 -10.5 2 -15.2 3.7 -4.7 1.6 -9.9 3 -11.6 3 -1.7 0 -7.5 -2.2 -13 -4.8z" />
    <path
      d="M490.5 260 c-3.3 -1 -9.3 -3 -13.3 -4.5 -5.8 -2 -10.5 -2.8 -22 -3.6 -8.1 -0.5 -18.3 -1.3 -22.7 -1.7 -8.4 -0.9 -21.6 -0.1 -32.4 1.9 -8.9 1.6 -20 0.6 -25.3 -2.3 -9.1 -5 -6.8 -12 8.9 -27.4 6 -5.8 10.9 -11.6 11.8 -13.8 1.5 -3.4 1.5 -4.2 0 -8.5 -0.8 -2.6 -5.4 -9.8 -10.6 -16.6 -4.9 -6.6 -10 -13.8 -11.1 -16 -1.1 -2.2 -5.3 -9.6 -9.3 -16.5 -9.4 -16 -10.4 -19.3 -8.2 -26.3 0.9 -2.9 4.9 -10.9 8.8 -17.7 4 -6.9 8.3 -15.9 9.7 -20 2.3 -7 2.4 -8.3 1.6 -20.5 -1.4 -24.2 -0.5 -29.2 5.9 -33.9 2.6 -1.9 4.3 -2.1 20 -2.1 16.9 0 17.3 -0.1 23 -2.9 7.1 -3.4 13 -10.5 17.3 -20.6 1.6 -3.9 3.2 -7 3.7 -7 1.1 0 0.9 0.6 -3.4 9.3 -5.4 10.7 -9.4 15.6 -16 19.2 -5.4 3 -5.5 3 -23.4 3.2 -27.3 0.4 -26.7 -0.5 -25.5 38.8 0.3 8.7 0 11 -2.4 18 -1.5 4.4 -5 11.6 -7.7 16.1 -2.7 4.5 -6.3 11.2 -8 14.8 -4.3 9.2 -3.9 14.7 2.1 24.8 2.3 4 6.8 11.8 9.9 17.3 3.1 5.5 9.6 15.2 14.4 21.6 7.8 10.4 11.7 17.6 11.7 21.6 0 3.8 -4.3 9.6 -14.1 19.3 -14.6 14.5 -16.5 20.4 -7.9 24.8 5.5 2.8 16.8 3 32.7 0.6 11.5 -1.7 14.7 -1.6 44.8 1 16.2 1.4 19.2 2 29.5 5.6 6.3 2.2 12.5 4 13.7 4 1.2 0 2.5 0.5 2.8 1 0.9 1.4 -2.1 1.1 -9 -1z" />
    <path
      d="M467.2 229.4 c-10.9 -5.4 -18.2 -18.2 -18.2 -32 0 -2.9 -0.9 -10.1 -1.9 -16.1 -1.8 -10.1 -1.8 -12 -0.6 -22.9 1.6 -13.8 3.2 -18.8 10.8 -33.9 3 -6 7.4 -16.2 9.7 -22.5 2.3 -6.3 5.6 -14.2 7.3 -17.5 3.5 -6.5 15.9 -20.2 21.4 -23.6 5.7 -3.6 4.6 -1.6 -1.7 3 -6.6 4.8 -13 12 -17.6 19.6 -3 5 -4.7 9 -9.9 23.5 -1.5 4.1 -5.4 12.8 -8.7 19.4 -3.3 6.5 -6.8 15.2 -7.9 19.4 -2.4 9.6 -3.4 25.4 -2 32.4 0.7 3 1.8 11.3 2.5 18.4 1.5 14 3 18.4 8.7 24.9 7.7 8.7 16.4 10.9 30.2 7.6 4.9 -1.2 9.3 -2.1 9.9 -2.1 2.5 0 -0.3 1.1 -7.3 3 -10.6 2.8 -18.3 2.6 -24.7 -0.6z" />
    <path
      d="M182.1 223.9 c-13.1 -2.6 -22.5 -8 -30.5 -17.6 -3.9 -4.6 -13.6 -11.7 -22.6 -16.3 -4.2 -2.3 -9.6 -5.7 -11.9 -7.6 -9.6 -8.3 -32.9 -38.8 -40.4 -53.1 -8.2 -15.6 -9.8 -32.8 -4 -43.5 6.8 -12.7 20.1 -14.9 43.3 -7.3 14.5 4.8 20.7 5.1 27 1.3 7.7 -4.5 13.8 -14.8 16.6 -28.1 2.4 -11.4 2.1 -13.7 -3.7 -38.6 -3 -12.6 -3.3 -17.8 -0.5 -8 4.6 16.1 6.8 29.4 6.3 38.9 -0.9 17.5 -8.7 32.4 -20.1 38.2 -5.3 2.7 -12.4 2 -27.6 -2.7 -22 -6.9 -35.4 -4.3 -41.1 8 -2.4 5.2 -2.6 20.8 -0.3 28.6 2.7 9.1 10.1 21.9 21.7 37.5 14.4 19.4 24.8 29.8 34.7 34.8 10.3 5.3 12.1 6.6 23.6 17.6 11.6 11.1 15.7 13.4 28.6 16.1 12.7 2.6 21 1.8 38.3 -3.7 23 -7.3 34 -17.3 33.8 -30.5 -0.2 -11 -6.1 -18.4 -25.9 -32.4 -22.9 -16.3 -26.2 -22.1 -29.4 -53.3 -0.6 -5.6 -2.2 -15.7 -3.5 -22.5 -1.4 -6.7 -2.5 -14 -2.5 -16.2 0 -5 3.3 -13 9.3 -22.6 6.5 -10.4 11.8 -23.3 16.4 -39.8 0.2 -0.8 0.6 -1.1 1 -0.8 0.8 0.9 -4.2 16.4 -8.6 26.5 -2.1 4.8 -6.1 12.5 -9 17.2 -2.8 4.6 -5.9 10.9 -6.8 14 -1.5 5.1 -1.5 6.1 0.2 14.5 2.8 14.2 3.6 18.8 4 22.5 4.6 39.9 6.4 43.5 30.7 60.1 17 11.5 26 23.1 26 33.4 0 8.4 -6.8 17.7 -17.5 24 -5.6 3.2 -22.2 9.1 -31.4 11 -7.5 1.6 -17.3 1.8 -24.2 0.4z" />
    <path
      d="M184.9 211.7 c-7.6 -3.2 -12.2 -6.1 -19.9 -12.7 -9 -7.8 -13.8 -10.9 -26.6 -17.4 -16.9 -8.6 -25.5 -16.6 -43.2 -39.7 -12.5 -16.4 -16.4 -24.9 -16.4 -35.7 0.1 -9.3 2.7 -15.2 8.5 -19 3.5 -2.3 5.1 -2.7 11.1 -2.7 6 0.1 8.7 0.7 17.6 4.4 13.7 5.7 15.5 6.1 22.2 6.2 8.2 0.1 13.6 -2.7 23.2 -12.1 9 -8.7 10.8 -9.4 16.3 -6 6.8 4.1 13.4 18.6 16.3 36 3.8 23.2 8 29.6 29 44.4 13.5 9.5 19.4 15.1 22 20.9 2.8 6.1 2.6 11.4 -0.9 16.8 -3.7 5.9 -10.5 10.2 -23.3 14.7 -8.6 3 -11.9 3.6 -20.3 3.9 -8.7 0.3 -10.7 0.1 -15.6 -2z m25.2 -0.1 c9.8 -2.4 22.3 -7.6 27.4 -11.4 6.4 -4.9 8.8 -9.4 8.1 -15.1 -1.2 -8.9 -6 -14.4 -23.4 -26.5 -18 -12.6 -24.5 -21 -27.7 -36.1 -6.2 -29.4 -7.7 -34.1 -13 -40.3 -2 -2.2 -5.1 -4.6 -7.1 -5.2 -3.5 -1.2 -3.5 -1.2 -11.7 6.7 -10.9 10.5 -17.4 13.8 -26 13.1 -3.6 -0.3 -9.5 -1.9 -14.2 -3.8 -17.6 -7.1 -23.9 -8.5 -29.8 -6.9 -11.4 3.1 -15.9 17.3 -10.3 32.3 2.8 7.4 5.7 12.2 13.6 22.6 16.7 21.9 26.4 30.8 41.7 38.5 11.9 6 18.4 10.2 28.7 18.8 16.1 13.4 28 17 43.7 13.3z" />
    <path
      d="M195.4 196.6 c-4.9 -1.5 -11.7 -5.2 -23.5 -12.8 -4.8 -3 -14.5 -8.1 -21.5 -11.3 -15.7 -7 -20.6 -10.2 -30.6 -20 -25.5 -24.8 -33.3 -38.6 -28 -49.2 4.3 -8.4 11.7 -8.3 28.7 0.3 18.1 9.1 24.6 8.7 42.1 -2.7 3.3 -2.1 7 -3.9 8.3 -3.9 7 0 11.4 6.7 16.7 25.2 5.1 17.9 6.2 19.7 20.5 33.8 6.9 6.9 13.4 13.7 14.3 15.1 2.8 4.4 3.5 8.3 2.1 11.5 -2.1 4.9 -10.6 12.1 -16.6 13.8 -6.2 1.9 -7.1 1.9 -12.5 0.2z m14.1 -2 c4.7 -2 11.4 -7.5 13.1 -10.8 3.4 -6.6 1.1 -10.5 -16 -27.3 -13.9 -13.7 -16.2 -17.5 -20.2 -33.6 -3.1 -12.5 -7.3 -21.3 -11.4 -23.4 -4.1 -2.1 -5.1 -1.9 -11.1 2.1 -9.3 6.5 -17.5 9.8 -24.5 9.8 -5.7 0.1 -7.3 -0.4 -17.6 -5.6 -14.5 -7.4 -19.5 -8.8 -24.1 -6.6 -4.6 2.2 -7.1 7.5 -6.2 13.1 1.2 7.4 6.3 15.2 19 29 13.2 14.4 21.8 21.5 30.5 25.5 17 7.6 26.9 12.7 34.3 17.5 17.3 11.4 25.6 13.9 34.2 10.3z" />
    <path
      d="M162.4 155.2 c-14.1 -9.2 -15 -16.3 -3.7 -28.3 7.7 -8.1 9.6 -9.4 12.1 -8 4.4 2.3 11.2 22.3 11.2 32.9 0 5 -1.7 6.4 -8.3 7 -4.7 0.3 -5.8 0 -11.3 -3.6z m18 -0.4 c0.8 -1.4 0.5 -4.4 -1.2 -12.5 -2.6 -12.5 -6.6 -21.6 -9.8 -22.1 -3.1 -0.4 -13.7 10.5 -16 16.4 -1.7 4.6 -1.7 4.7 0.5 8.8 1.4 2.8 4.1 5.5 7.9 7.9 5.2 3.4 6.3 3.7 11.6 3.5 4.3 -0.2 6.2 -0.8 7 -2z" />
    <path
      d="M42.3 204.9 c-15 -1.1 -22.4 -4.7 -25.2 -12.2 -1.5 -3.8 -1.4 -18.7 0.1 -25.9 1 -4.9 0.9 -6.5 -0.6 -11.4 -1.9 -6 -8.3 -13.9 -13.8 -17.2 -1.5 -0.9 -2.8 -2 -2.8 -2.4 0 -3.7 13.2 8.9 16.6 15.8 2.4 5 2.6 6.1 1.9 12.7 -1.3 13 -1.5 23 -0.5 26.8 1.4 5 6.6 9.4 13.2 11 6.8 1.6 31 1.8 41.3 0.3 13.4 -2 22.3 -5.1 25.4 -8.8 3.1 -3.7 0.3 -15.1 -6 -24.4 -2.1 -3.1 -5.3 -7.9 -7.2 -10.7 -15.2 -22.3 -21.9 -36.2 -24.2 -50.5 -0.4 -2.5 -1 -5.8 -1.3 -7.5 -0.3 -1.6 -0.5 -7.1 -0.5 -12.2 0 -16 5 -21.9 20.8 -24.3 8 -1.3 13.4 -0.8 29.3 2.6 20.9 4.4 27.5 2.9 33.8 -7.9 9.3 -15.9 10.1 -28.9 3.4 -52.4 -1 -3.5 -1.4 -6.3 -1 -6.3 1.4 0 3.9 9.8 5.7 21.7 2.1 14 1.2 21 -4.5 32.7 -4.5 9.2 -6.6 11.8 -12.2 14.6 -5.1 2.6 -10.2 2.5 -23.5 -0.5 -25.1 -5.7 -43.2 -3.7 -47.9 5.2 -3 6 -3.7 13.8 -2 25.6 1.9 13.8 4.5 22.9 9.6 33.1 4 8 14.1 24 20.9 33.1 4.4 5.9 9.9 19 9.9 23.5 0 4.9 -5.1 9.1 -14.1 11.8 -12.3 3.6 -29.7 5.2 -44.6 4.1z" />
    <path
      d="M369.2 194.7 c-0.3 -6.7 -3.9 -14.4 -12 -25 -6 -7.9 -8.7 -10.3 -15.6 -13.9 -5.4 -2.7 -6.6 -3 -15 -2.8 -26.4 0.7 -28.1 0.4 -35 -6.7 -4.7 -4.9 -21.3 -37.8 -22.6 -44.9 -2.5 -14.1 6.6 -22.2 22.2 -19.6 8.4 1.5 13.9 3.3 26.3 9 12.3 5.6 17.3 6.3 23.4 3 4.9 -2.6 10.3 -9.6 12.2 -15.6 0.6 -2 1.3 -10 1.5 -17.7 0.7 -22.5 3.3 -34.3 9.5 -43 7.7 -10.7 16.7 -12.9 30.4 -7.5 9.1 3.6 18.5 4.8 23.8 3.1 3.8 -1.3 11.7 -9.1 11.7 -11.6 0 -0.8 0.4 -1.5 0.9 -1.5 3.1 0 -4.9 10.9 -9.8 13.5 -6.5 3.3 -11.8 3 -25.1 -1.5 -9.3 -3.1 -13.5 -4.1 -16.3 -3.7 -8.8 1.2 -17.2 10.9 -20.7 23.9 -1.5 5.6 -2.3 12.6 -2.9 26 -0.9 19.4 -1.6 22.5 -6.8 30.1 -6.9 10 -19.3 11.4 -32.7 3.6 -5.2 -3 -20.5 -8.1 -26.1 -8.6 -8.1 -0.7 -12.7 0.2 -16.4 3.3 -6.7 5.6 -5.9 13 3.1 31.9 9.4 19.5 13.8 26.5 19.3 30.3 4.8 3.3 4.8 3.3 22.4 3 17.6 -0.3 17.6 -0.3 23.4 2.7 12.2 6.1 28.7 29.9 28.7 41.2 0 3.6 -1.7 2.7 -1.8 -1z" />
    <path
      d="M54 192.3 c-9.3 -1.6 -15.4 -5.4 -18.5 -11.3 -2.3 -4.4 -2.9 -11.2 -1.5 -15.5 1.8 -5.5 1.4 -14.1 -1 -18.9 -1.1 -2.2 -6.6 -8.9 -12.2 -14.8 -15.3 -15.8 -19.3 -23.5 -16.9 -32.4 2 -7.6 11.2 -15.6 20.4 -17.8 8.6 -2.1 18.2 5.8 23.5 19.3 1.8 4.4 4.3 12.4 5.6 17.8 4.5 18 4.3 17.5 18 37.7 9.8 14.6 10 15 10.1 20.7 0 6.7 -2.3 10 -9 12.9 -4.2 1.9 -14.2 3.1 -18.5 2.3z m19.8 -4.3 c2.4 -1.4 4.8 -3.7 5.7 -5.7 2.7 -5.6 1 -10.1 -10.2 -26.8 -5.5 -8.3 -10.7 -16.4 -11.6 -18.1 -0.9 -1.7 -3.4 -9.8 -5.6 -18 -2.2 -8.2 -5.1 -17.5 -6.5 -20.6 -6.1 -13.8 -16.4 -19 -26.9 -13.7 -9.8 5 -13.7 10.4 -13.7 18.9 0 7.7 4 14.1 16.7 27 14.5 14.7 17.1 21.1 13.9 33.6 -3.1 12.1 1.1 20.7 12.2 25 5.9 2.2 20.8 1.3 26 -1.6z" />
    <path
      d="M408.9 186.7 c-6.4 -1.8 -13.9 -6.9 -19.7 -13.2 -3.5 -3.9 -6.6 -9.1 -11.3 -19.2 -6.3 -13.8 -6.3 -13.8 -6.4 -23.3 0 -9.5 0 -9.5 5.7 -21.5 8.5 -18.2 9.6 -22 10.3 -38 1.3 -25.8 2.9 -27.9 23.3 -30.9 12.2 -1.8 20.4 -4.4 24.7 -7.8 3.8 -2.9 8.3 -10.5 13.5 -22.3 5 -11.4 4.8 -11 5.5 -10.4 0.7 0.8 -8.4 20.7 -12.2 26.7 -5.5 8.7 -13.9 12.8 -30.8 15.2 -20 2.7 -22.3 5.5 -22.4 27.2 -0.1 14.1 -2 21.5 -9.1 37.3 -7 15.4 -8.5 20.9 -7.7 27.8 0.6 5.3 4.6 15.5 11 28.3 6.3 12.6 19.3 22.4 30.9 23.2 4.7 0.4 6.2 0 8.7 -1.8 5.3 -3.7 6.9 -9.1 9.1 -29.8 1.7 -15.3 4.6 -23.4 14.3 -39.5 2 -3.2 6.3 -12.9 9.7 -21.5 10.7 -27.1 15.4 -32.6 38.3 -45.6 2.7 -1.5 5.1 -2.6 5.4 -2.3 0.2 0.3 -1.7 1.8 -4.4 3.3 -17.7 10.1 -21 12.6 -26.7 21.2 -2.4 3.7 -7.4 14.1 -11.1 23.2 -3.6 9.1 -8.6 19.9 -11 24 -10.1 17.3 -11.2 21 -14.5 48.5 -0.6 5 -1.9 10.8 -2.9 13.1 -3.4 7.7 -10.9 10.7 -20.2 8.1z" />
    <path
      d="M401.2 163.4 c-3.7 -3 -6.5 -7.9 -9.9 -17.9 -3.6 -10.6 -3.1 -20.1 1.7 -34.2 3.9 -11.2 5.2 -18.2 6.9 -35.9 1.7 -19.4 7.5 -24.1 31.6 -25.9 4.4 -0.3 10.1 -0.8 12.7 -1.1 6.2 -0.6 7.8 1 7.2 7.3 -2.2 23.3 -8.2 38.7 -23.8 60.4 -8.3 11.4 -10.5 17.5 -11.6 31.5 -1 12.2 -1.7 14.4 -5.2 16.8 -3.2 2.3 -5.8 2 -9.6 -1z m9.2 -0.6 c2.9 -2.5 4.6 -9.4 4.6 -18.3 0 -8.1 3.3 -17.1 9.4 -26 3.1 -4.4 7.7 -11.1 10.3 -15 7.7 -11.3 13.5 -29.4 15 -46.7 0.6 -6.8 0.6 -6.8 -3.8 -6.8 -10.4 0 -30.4 3 -34.9 5.3 -5.8 2.9 -9.2 9.2 -9.7 18.1 -0.8 14.1 -2.7 24.7 -6.6 36.6 -3.5 10.6 -4.1 13.8 -4.1 21 0 16.1 8.2 33 16.6 33.9 0.4 0.1 1.8 -0.9 3.2 -2.1z" />
    <path
      d="M252.5 149.5 c-10.7 -5.3 -19.5 -12 -23.2 -17.7 -2.4 -3.5 -2.8 -5.2 -2.8 -10.7 0.1 -12.1 6.5 -19.6 14.6 -17.2 4.5 1.3 14.6 10.3 19.1 17 10.9 15.8 13 33.2 4 33.1 -1.5 0 -6.7 -2.1 -11.7 -4.5z m15.6 -0.1 c2.9 -7.7 -4.9 -25.5 -16.1 -36.3 -8.2 -8 -13.9 -10 -18.7 -6.6 -2.1 1.5 -6.3 11 -6.3 14.3 0 9.7 8.6 18.7 26 27.4 9.2 4.6 13.6 4.9 15.1 1.2z" />
    <path
      d="M247.5 135.2 c-6 -1.2 -9 -9.5 -4 -10.8 1.8 -0.4 3.2 -0.1 4.6 1.2 1.9 1.7 4.9 6.5 4.9 7.8 0 1.1 -3.6 2.2 -5.5 1.8z m3.5 -3.1 c0 -2.2 -5.7 -7.4 -7.4 -6.8 -2.3 0.7 -1.7 4.5 1 6.6 3.4 2.7 6.4 2.8 6.4 0.2z" />
    <path
      d="M491.9 130.2 c-3.5 -2.6 -7 -6.1 -7.8 -7.7 -3.4 -6.9 -2.3 -22.1 2.1 -31 2.1 -4.1 8.1 -12.1 10.8 -14.2 3.2 -2.6 2.9 -1.2 -0.4 2.2 -8.4 8.4 -12.5 17.4 -13.3 29 -0.7 11.6 1.9 16 14.7 24.7 1.4 0.9 2 1.7 1.4 1.7 -0.6 0.1 -4 -2 -7.5 -4.7z" />
    <path
      d="M0 74.6 c0 -0.2 2.6 -2.1 5.8 -4.3 7.7 -5.5 18 -10.4 28.2 -13.8 4.7 -1.5 10.1 -3.6 12.1 -4.6 11 -5.5 20.6 -27.5 19.7 -45.2 -0.2 -3.7 0 -6.7 0.5 -6.7 0.4 0 0.7 1.2 0.8 2.8 0.4 15.5 -1 22.3 -7.2 35 -5.7 11.4 -9.9 14.9 -23.1 19.2 -11.7 3.8 -21.7 8.5 -30 14.1 -5.4 3.7 -6.8 4.4 -6.8 3.5z" />
    <path
      d="M301.4 59.1 c-10.7 -3.9 -23 -13.7 -22.2 -17.7 0.2 -1 3.5 -4.2 7.3 -7.1 16.9 -12.6 19.5 -20.7 9.3 -29.9 -2.2 -1.9 -3.7 -3.8 -3.4 -4.2 1.1 -1 6.7 5.1 9.1 9.8 1.9 3.9 2.1 5 1.1 8.3 -1.5 5.3 -5.3 9.5 -14.1 16.2 -4.2 3.1 -7.9 6.4 -8.2 7.2 -0.8 2.1 7.8 9.6 15.5 13.3 12.4 6.2 23.6 6.1 30.7 -0.1 5 -4.4 6.7 -7.8 12 -23.4 2.6 -7.7 5.6 -15.8 6.7 -18 2.4 -4.7 9 -13.7 9.6 -13 0.2 0.2 -1.1 2.6 -3.1 5.2 -4.9 6.8 -6.9 11.1 -11.7 25.3 -6.7 19.7 -10.1 25.1 -18.2 28.4 -5 2.1 -14.1 2 -20.4 -0.3z" />
    <path
      d="M1.8 57.3 c1.2 -1 9.2 -5.7 17.7 -10.3 18.7 -10.1 24.3 -14.8 28.6 -23.5 2.9 -5.9 3.1 -7.1 2.6 -13.2 -0.2 -3.8 -0.8 -7.7 -1.3 -8.7 -0.5 -1.2 -0.4 -1.7 0.3 -1.3 1.8 1.1 3.6 9.4 2.9 13.9 -1 7 -5.2 14.6 -10.9 20.1 -3.7 3.6 -10.8 8.2 -22.7 14.7 -18.1 10 -21 11.4 -17.2 8.3z" />
    <path
      d="M104 55.4 c-10.9 -2.4 -18.7 -5.4 -21.4 -8.1 -4.5 -4.5 -4.6 -6.5 -1.6 -31.3 0.6 -5.2 0.9 -11 0.6 -12.8 -0.3 -1.9 -0.1 -3 0.5 -2.7 1.4 0.9 1.1 13.8 -0.6 24 -2.8 16.7 -1.9 20.3 5.9 24.2 7 3.5 24.9 7.1 31.9 6.3 8.3 -0.9 12.8 -4.4 17.3 -13.4 3.6 -7.4 3.7 -7.7 3.2 -16.8 -0.4 -6.5 -1.4 -11.4 -3.2 -16.4 -2.7 -7.4 -3.3 -10.2 -1.5 -7.1 3.4 5.9 5.9 16.4 5.9 25.1 0 7.9 -0.4 9.9 -2.9 15.1 -3 6.5 -6.8 10.8 -11.6 13.2 -4.1 2.2 -14.7 2.5 -22.5 0.7z" />
    <path
      d="M454.1 47.2 c-2.4 -0.4 -2.4 -0.5 -1.7 -9 1.2 -15.3 6.4 -30.9 12.2 -36.3 3.2 -3 3 -1.4 -0.3 2.5 -5.4 6.4 -9.3 18.8 -10.9 35 -0.7 6.9 -0.7 6.9 5.4 6.3 8.4 -0.9 24.3 -6.2 33 -10.9 4 -2.2 7.5 -3.8 7.8 -3.5 1 0.9 -12.7 7.9 -21.4 10.8 -9.8 3.4 -20.5 5.6 -24.1 5.1z" />
    <path
      d="M0 45.3 c0.1 -0.5 3.9 -3 8.7 -5.8 11.3 -6.6 20.7 -15.6 22.3 -21.3 1.5 -5.9 0 -10.2 -5.3 -14.7 -2.2 -1.9 -3.6 -3.5 -3.1 -3.5 1.9 0 7.5 5.6 9.3 9.4 4.1 8.7 -1.6 17.3 -19.4 29.3 -7.2 4.8 -12.5 7.6 -12.5 6.6z" />
    <path
      d="M264.4 42.5 c-2.7 -2.7 -6.6 -10.7 -8.4 -17.4 -1.5 -5.7 0.1 -10.8 3.7 -11.8 4.3 -1 5.4 0.9 11.4 19.4 1.9 6.1 2.1 7.4 0.9 8.8 -2.9 3.5 -4.9 3.7 -7.6 1z m5.9 -1.3 c1.5 -1.6 1.4 -2.4 -0.9 -9.7 -5.1 -15.8 -8.1 -20.1 -11 -16 -3 4.1 -0.1 16.5 5.6 24.5 2.4 3.4 4 3.7 6.3 1.2z" />
    <path
      d="M175.3 35.8 c-1.8 -1.3 -4.1 -3.9 -5.2 -5.8 -2.9 -5.3 -10.7 -31.8 -8.7 -29.9 0.4 0.4 1.7 4.6 3.1 9.5 4.7 17.7 8.2 24.2 14.3 26.5 8.3 3.2 25.2 -14.6 30.3 -31.8 0.7 -2.4 1.6 -4.3 2 -4.3 1.2 0 -2.5 10.1 -6.1 16.8 -4.4 8.3 -11.2 15.6 -17.2 18.6 -6.4 3.2 -8.4 3.2 -12.5 0.4z" />
    <path
      d="M3.4 26 c1.9 -2.2 3.8 -5.1 4.2 -6.5 0.8 -3.4 -1.2 -8 -4.9 -11.1 -3.7 -3.1 -3 -4.2 0.8 -1.2 1.5 1.2 3.6 4 4.6 6.2 1.6 3.6 1.6 4.3 0.3 7.6 -1.6 3.7 -6.1 9 -7.7 9 -0.5 0 0.7 -1.8 2.7 -4z" />
    <path
      d="M177.2 14.2 c-3.2 -3 -7.2 -10.1 -7.2 -12.9 0 -1 1.5 1.1 3.3 4.7 3.7 7.4 8.3 10.8 13 9.6 3.9 -0.9 8.9 -5.8 11.7 -11.2 1.3 -2.7 2.5 -4.4 2.7 -3.8 0.7 2.1 -5 10.6 -9 13.5 -5.4 3.9 -10.4 3.9 -14.5 0.1z" />
    <path
      d="M400.1 3.5 c-7.3 -3.4 -6 -4.1 1.8 -0.9 7.3 3 13.6 2.7 16.6 -0.6 1 -1.1 2.3 -2 2.9 -2 0.6 0 -0.2 1.2 -1.6 2.7 -4 4 -12.3 4.3 -19.7 0.8z" />
  </g>
</svg>