<?xml version="1.0" standalone="no"?>
<!DOCTYPE svg PUBLIC "-//W3C//DTD SVG 20010904//EN"
 "http://www.w3.org/TR/2001/REC-SVG-20010904/DTD/svg10.dtd">
<svg version="1.0" xmlns="http://www.w3.org/2000/svg"
 width="487.000000pt" height="509.000000pt" viewBox="0 0 487.000000 509.000000"
 preserveAspectRatio="xMidYMid meet">
<metadata>
Created by potrace 1.16, written by Peter Selinger 2001-2019
</metadata>
<g transform="translate(0.000000,509.000000) scale(0.100000,-0.100000)"
fill="#000000" stroke="none">
<path d="M2090 5066 c0 -2 73 -60 163 -127 205 -156 371 -319 415 -408 43 -87
45 -170 5 -207 -38 -35 -105 -52 -298 -75 -204 -24 -324 -42 -453 -70 -282
-61 -603 -208 -838 -385 -521 -392 -853 -990 -949 -1710 -16 -119 -20 -308 -7
-302 5 2 43 44 86 95 71 85 163 165 227 199 24 12 30 25 44 91 41 194 70 306
106 408 215 627 694 1076 1279 1201 121 26 430 26 550 0 241 -52 462 -175 625
-347 122 -129 198 -261 252 -439 25 -81 27 -98 31 -367 l4 -283 45 -39 c24
-22 68 -47 96 -57 29 -9 84 -31 124 -50 97 -46 117 -78 111 -177 -15 -206
-177 -416 -413 -534 -158 -79 -315 -115 -505 -115 -443 0 -835 234 -1024 613
-56 111 -85 204 -131 418 -19 90 -41 174 -50 187 -69 106 -258 -86 -351 -358
-36 -106 -54 -242 -54 -413 0 -172 18 -305 60 -455 68 -239 193 -502 313 -659
110 -144 554 -398 883 -506 212 -70 571 -141 674 -133 l45 3 -160 119 c-273
204 -405 353 -405 459 0 99 59 132 385 216 127 33 278 76 337 96 377 127 662
317 930 619 259 292 424 668 460 1047 27 292 -39 523 -198 689 -90 94 -169
140 -240 140 -66 0 -96 -20 -190 -129 -78 -90 -106 -107 -119 -73 -3 9 -15 91
-26 181 -36 306 -90 494 -216 751 -69 142 -82 161 -149 227 -265 258 -706 492
-1127 599 -160 40 -347 73 -347 60z"/>
<path d="M2180 2867 c-128 -85 -73 -297 77 -297 96 0 163 60 171 153 4 60 -20
106 -77 144 -47 32 -125 32 -171 0z"/>
<path d="M2700 2828 c-50 -35 -72 -82 -68 -149 7 -95 66 -149 165 -149 95 0
159 74 151 175 -8 92 -68 145 -166 145 -34 0 -59 -7 -82 -22z"/>
</g>
</svg>
